<?xml version="1.0" standalone="no"?><!DOCTYPE svg PUBLIC "-//W3C//DTD SVG 1.1//EN" "http://www.w3.org/Graphics/SVG/1.1/DTD/svg11.dtd"><svg t="1658731699745" class="icon" viewBox="0 0 1024 1024" version="1.1" xmlns="http://www.w3.org/2000/svg" p-id="2258" xmlns:xlink="http://www.w3.org/1999/xlink" width="16" height="16"><defs><style type="text/css">@font-face { font-family: feedback-iconfont; src: url("//at.alicdn.com/t/font_1031158_u69w8yhxdu.woff2?t=1630033759944") format("woff2"), url("//at.alicdn.com/t/font_1031158_u69w8yhxdu.woff?t=1630033759944") format("woff"), url("//at.alicdn.com/t/font_1031158_u69w8yhxdu.ttf?t=1630033759944") format("truetype"); }
</style></defs><path d="M593.508897 508.99148c-14.484899 0-29.051663 14.567787-29.051663 29.02608 0 14.70184 14.56574 29.078269 29.051663 29.078269 21.960151 0 36.335556-14.376429 36.335556-29.078269C629.844453 523.559267 615.469048 508.99148 593.508897 508.99148z" p-id="2259" fill="#1BD66C"></path><path d="M753.252111 508.99148c-14.375405 0-28.860305 14.567787-28.860305 29.02608 0 14.70184 14.484899 29.078269 28.860305 29.078269 21.768793 0 36.335556-14.376429 36.335556-29.078269C789.586644 523.559267 775.020904 508.99148 753.252111 508.99148z" p-id="2260" fill="#1BD66C"></path><path d="M295.790238 298.345945c-21.741163 0-43.72792 14.3488-43.72792 36.226063 0 21.768793 21.986757 36.334533 43.72792 36.334533 21.767769 0 36.226063-14.56574 36.226063-36.334533C332.016301 312.694745 317.558008 298.345945 295.790238 298.345945z" p-id="2261" fill="#1BD66C"></path><path d="M499.070015 370.907565c21.850657 0 36.335556-14.56574 36.335556-36.334533 0-21.877263-14.484899-36.226063-36.335556-36.226063-21.767769 0-43.645033 14.3488-43.645033 36.226063C455.424982 356.340801 477.302245 370.907565 499.070015 370.907565z" p-id="2262" fill="#1BD66C"></path><path d="M510.035764 0c-280.969183 0-508.99148 227.912803-508.99148 508.99148s228.022297 508.992503 508.99148 508.992503c280.998859 0 508.911662-227.913826 508.911662-508.992503S791.034623 0 510.035764 0zM390.146233 668.927075c-36.252669 0-65.386196-7.393387-101.721753-14.56574l-101.531418 50.927903 29.025057-87.400582c-72.67009-50.791803-116.207675-116.315122-116.207675-196.050118 0-138.194432 130.773416-247.00872 290.435789-247.00872 142.777821 0 267.877003 86.909395 293.0268 203.935716-9.219989-1.037632-18.549471-1.691525-27.958772-1.691525-137.976468 0-246.899226 102.94972-246.899226 229.850945 0 21.085224 3.272533 41.435715 8.946766 60.85909C408.287405 668.491147 399.257751 668.927075 390.146233 668.927075zM818.531883 770.649851l21.87624 72.614831-79.653131-43.646056c-29.052686 7.28287-58.239426 14.56574-87.154989 14.56574-138.194432 0-247.00872-94.437859-247.00872-210.752981 0-116.125811 108.814288-210.755028 247.00872-210.755028 130.445958 0 246.680239 94.629217 246.680239 210.755028C920.280242 668.927075 876.853174 726.94956 818.531883 770.649851z" p-id="2263" fill="#1BD66C"></path></svg>